<svg width="168" height="164" viewBox="0 0 168 164" fill="none" xmlns="http://www.w3.org/2000/svg">
<ellipse cx="84" cy="82" rx="84" ry="82" fill="#26437C"/>
<path d="M40 86L52 60L57.5 50L64 37L77.5 45H89.5L101.5 37L112 56L123.5 81L120.5 112L107.5 130L83.5 134L60 129L46 112L40 86Z" fill="#EED5B0" stroke="black"/>
<path d="M79.5 82.5L79 80L81.5 78L84.5 80V82.5H79.5Z" fill="#867272" stroke="#1E1E1E"/>
<rect x="56" y="135" width="57" height="4" fill="#ABA8A8"/>
<path d="M56 103C56 100.239 58.2386 98 61 98H108C110.761 98 113 100.239 113 103V135C113 136.105 112.105 137 111 137H58C56.8954 137 56 136.105 56 135V103Z" fill="#B0B0B0"/>
<path d="M81 72L74.7833 67L67.55 69.5L66 68.4211L67.55 66.3158L74.7833 60H86.15L90.8 62.6316L98.5 66.3158L97.5 68.4211L95.5 69L88.5 67L83.5 72H81Z" fill="#EBCEA2"/>
<path d="M63.853 68.2241L71.8498 73.6371L70.4282 71.5806L66.3511 68.3207L63.8226 66.4216L63.853 68.2241Z" fill="#DDC094"/>
<path d="M68.5 41.5L65 40.5L63 42.5V46L70.0714 44.5L68.5 41.5Z" fill="#E1BA80"/>
<path d="M103 44L100.5 41L97.1378 42.5666L96.2651 45.0729L103 47.5L103 44Z" fill="#E1BA80"/>
<path d="M66 85L68.5 89L78 93.5L83 95.5L86.5 93.5L99 87.5L101 85L99 82L82 85L66 82V85Z" fill="#EBCEA2"/>
<path d="M79.0667 89.9091L78 85L81.5 86L86 85L84.9333 89.9091L82.2667 91L79.0667 89.9091Z" fill="#BF5F5F" stroke="black"/>
<path d="M73 87L77.5 94L82.5 95.5L86.5 94L92 87" stroke="black" stroke-width="0.5"/>
<path d="M68.5 82L82.2353 86L96.5 82" stroke="black"/>
<path d="M99.628 66.4268L91.9958 72.3428L94.3925 71.6315L98.7591 68.7709L101.351 66.9587L99.628 66.4268Z" fill="#DDC094"/>
<path d="M77.5 74.5L74 75.5L71.5 73L74.5 70L77.5 72V74.5Z" fill="#555252" stroke="black"/>
<path d="M86.2983 71.7442L89.3407 69.7457L92.4726 71.3862L90.504 75.1445L87.044 74.1304L86.2983 71.7442Z" fill="#555555" stroke="black"/>
<circle cx="87" cy="72" r="1" fill="#D9D9D9"/>
<circle cx="76" cy="72" r="1" fill="#D9D9D9"/>
<path d="M90 112V114V120.5C90 120.5 88 125.5 84.5 125.5C81 125.5 76 124 76 124V123C76 123 83.5 122 85 120.5C86.5 119 88.5 114 88.5 114V112H90Z" fill="#FCE593"/>
<path d="M88.5 114H90M88.5 114V112H90V114M88.5 114C88.5 114 86.5 119 85 120.5C83.5 122 76 123 76 123V124C76 124 81 125.5 84.5 125.5C88 125.5 90 120.5 90 120.5V114" stroke="#F8D354"/>
<path d="M88.5 113V111H90V113H88.5Z" fill="#796666" stroke="#796666"/>
</svg>
