<svg width="100" height="100" viewBox="0 0 100 100" fill="none" xmlns="http://www.w3.org/2000/svg">
<path d="M39.2858 48.1707L40.7739 50.6098L46.4286 53.3537L49.4048 54.5732L51.4881 53.3537L58.9286 49.6951L60.1191 48.1707L58.9286 46.3415L48.8096 48.1707L39.2858 46.3415V48.1707Z" fill="#EBCEA2"/>
<path d="M100 50C100 77.6142 77.6142 100 50 100C22.3858 100 0 77.6142 0 50C0 22.3858 22.3858 0 50 0C77.6142 0 100 22.3858 100 50Z" fill="#26437C"/>
<path d="M23.2142 50.1729L30.3999 34.0826L33.6933 27.8941L37.2861 17.6829L45.6693 24.7998H52.855L60.34 17.6829L66.328 31.6072L73.2142 47.0786L71.4178 66.2632L63.6334 77.4026L49.2621 79.878L35.1903 76.7838L26.807 66.2632L23.2142 50.1729Z" fill="white" stroke="black"/>
<rect x="32.738" y="80.4878" width="33.9286" height="2.43902" fill="#ABA8A8"/>
<path d="M32.738 62.9268C32.738 60.1654 34.9766 57.9268 37.738 57.9268H61.6666C64.428 57.9268 66.6666 60.1654 66.6666 62.9268V79.7073C66.6666 80.8119 65.7712 81.7073 64.6666 81.7073H34.738C33.6335 81.7073 32.738 80.8119 32.738 79.7073V62.9268Z" fill="#B0B0B0"/>
<path d="M52.9762 66.4634V67.6829V71.6463C52.9762 71.6463 51.7857 74.6951 49.7023 74.6951C47.619 74.6951 44.6428 73.7805 44.6428 73.7805V73.1707C44.6428 73.1707 49.1071 72.561 50 71.6463C50.8928 70.7317 52.0833 67.6829 52.0833 67.6829V66.4634H52.9762Z" fill="#FCE593"/>
<path d="M52.0833 67.6829H52.9762M52.0833 67.6829V66.4634H52.9762V67.6829M52.0833 67.6829C52.0833 67.6829 50.8928 70.7317 50 71.6463C49.1071 72.561 44.6428 73.1707 44.6428 73.1707V73.7805C44.6428 73.7805 47.619 74.6951 49.7023 74.6951C51.7857 74.6951 52.9762 71.6463 52.9762 71.6463V67.6829" stroke="#F8D354"/>
<path d="M52.0834 67.0732V65.8537H52.9762V67.0732H52.0834Z" fill="#796666" stroke="#796666"/>
<path d="M43.0848 26.8293H53.9371L67.2287 34.7124L73.2143 48.4052L48.8096 42.0732L23.8096 49.3902L30.0596 35.9756L43.0848 26.8293Z" fill="#D8AF72" fill-opacity="0.48"/>
<path d="M50.1488 26.8293L47.3214 51.2195L52.3809 26.8293H50.1488Z" fill="white"/>
<path d="M50.0938 44.0114L50.3381 45.5457L48.8084 46.71L47.0664 45.4259L47.1195 43.9024L50.0938 44.0114Z" fill="#1E1E1E" stroke="#1E1E1E"/>
<path d="M35.3641 38.2977L41.5782 39.1565L40.1777 38.3352L36.8743 37.5917L34.8588 37.2055L35.3641 38.2977Z" fill="#1E1E1E"/>
<path d="M60.3074 37.7686L54.7619 39.3176L56.2419 39.4769L59.2951 38.8859L61.1332 38.4706L60.3074 37.7686Z" fill="#1E1E1E"/>
<path d="M45.389 39.779C45.8026 40.9137 45.1583 41.9178 44.1244 42.5878C43.0794 43.2652 41.9064 43.3773 40.8773 42.6599C39.6423 41.7989 39.432 40.0767 40.3986 38.9627C41.2058 38.0326 42.3571 37.8887 43.566 38.2745C44.457 38.5588 45.0804 38.932 45.389 39.779Z" fill="#E1BA80"/>
<path fill-rule="evenodd" clip-rule="evenodd" d="M36.9963 16.514L38.9391 18.1857L45.8874 24.1646H52.0293L58.9776 18.1857L60.7992 16.6182L61.7319 18.833L68.2795 34.3818L68.9251 35.915L67.4266 36.6374L62.3671 39.0764L62.1494 38.6248L60.7143 39.3293C60.7143 39.3293 54.1549 31.0731 53.1463 27.6646H52.6786H45.2381H44.6016C42.7643 30.2703 37.4784 35.6395 35.8221 37.3026L34.8752 39.0357L30.411 36.5967L28.9442 35.7954L29.6773 34.2934L33.5018 26.458L36.1466 18.932L36.9963 16.514ZM37.2954 26.2195L42.9094 26.2195L38.5989 22.5104L37.2954 26.2195ZM59.4389 22.4062L61.2484 26.7034C59.8956 26.5644 57.2734 26.3186 54.9805 26.2426L59.4389 22.4062Z" fill="#555252"/>
<ellipse cx="43.4523" cy="40.2439" rx="1.78571" ry="1.82927" fill="black"/>
<ellipse cx="44.0476" cy="39.6341" rx="0.595238" ry="0.609756" fill="#D9D9D9"/>
<path d="M51.0396 39.779C50.626 40.9137 51.2703 41.9178 52.3041 42.5878C53.3492 43.2652 54.5222 43.3773 55.5513 42.6599C56.7863 41.7989 56.9966 40.0767 56.0299 38.9627C55.2228 38.0326 54.0715 37.8887 52.8626 38.2745C51.9716 38.5588 51.3482 38.932 51.0396 39.779Z" fill="#E1BA80"/>
<path d="M51.6348 40.1287C51.2212 41.2635 51.8655 42.2675 52.8994 42.9376C53.9444 43.6149 55.1174 43.7271 56.1465 43.0096C57.3815 42.1486 57.5918 40.4264 56.6252 39.3124C55.818 38.3823 54.6668 38.2384 53.4578 38.6242C52.5668 38.9085 51.9434 39.2817 51.6348 40.1287Z" fill="#E1BA80"/>
<ellipse cx="1.78571" cy="1.82927" rx="1.78571" ry="1.82927" transform="matrix(-1 0 0 1 54.762 38.4146)" fill="black"/>
<ellipse cx="0.595238" cy="0.609756" rx="0.595238" ry="0.609756" transform="matrix(-1 0 0 1 52.9762 39.0244)" fill="#D9D9D9"/>
<path d="M47.0635 51.1641L46.4286 48.1707L48.5119 48.7805L51.1905 48.1707L50.5556 51.1641L48.9683 51.8293L47.0635 51.1641Z" fill="#BF5F5F" stroke="black"/>
<path d="M43.4524 48.7805L46.131 53.0488L49.1072 53.9634L51.4881 53.0488L54.7619 48.7805" stroke="black" stroke-width="0.5"/>
<path d="M40.7738 46.3415L48.9496 48.7805L57.4405 46.3415" stroke="black"/>
<path d="M56.25 38.3215C56.25 38.3215 52.069 37.6489 51.2706 38.3215C50.7697 38.7436 50.3619 39.7457 50.3619 39.7457" stroke="#555252"/>
<path d="M40.4762 38.4146C40.4762 38.4146 44.062 37.307 44.8604 37.9796C45.3613 38.4017 45.7691 39.4038 45.7691 39.4038" stroke="#555252"/>
<path d="M45.6269 41.472C45.2503 41.4205 44.7063 42.7558 43.7171 43.3098C42.7923 43.8278 39.881 41.472 39.881 41.472" stroke="#555252" stroke-opacity="0.5" stroke-width="2"/>
<path d="M51.1905 42.0732C51.4881 42.378 53.0494 43.2194 54.1705 43.3407C55.2186 43.4541 56.9203 41.5072 57.1429 41.1585" stroke="#555252" stroke-opacity="0.5" stroke-width="2"/>
<path d="M25.5953 45.4268C25.5953 45.4268 33.7633 55.6121 37.2024 51.8293C37.7736 51.201 38.0242 50.7711 38.3929 50C39.9402 46.7639 37.2024 40.8537 37.2024 40.8537L29.4643 37.1951L25.5953 45.4268Z" fill="#EED5B0" fill-opacity="0.5"/>
<path d="M71.9024 43.9024C71.9024 43.9024 64.032 54.0877 60.5929 50.3049C60.0217 49.6766 59.7711 49.2467 59.4024 48.4756C57.8551 45.2395 60.5929 39.3293 60.5929 39.3293L68.0334 35.3658L71.9024 43.9024Z" fill="#EED5B0" fill-opacity="0.5"/>
</svg>
