<svg width="100" height="100" viewBox="0 0 100 100" fill="none" xmlns="http://www.w3.org/2000/svg">
<path d="M41.0714 50L42.5595 52.439L48.2143 55.1829L51.1905 56.4024L53.2738 55.1829L60.7143 51.5244L61.9047 50L60.7143 48.1707L50.5952 50L41.0714 48.1707V50Z" fill="#EBCEA2"/>
<circle cx="50" cy="50" r="50" fill="#9BE2EC"/>
<path d="M25 52.0022L32.1856 35.9119L35.479 29.7233L39.0719 19.5122L47.4551 26.6291H54.6407L62.1257 19.5122L68.1138 33.4365L75 48.9079L73.2036 68.0925L65.4192 79.2319L51.0479 81.7073L36.976 78.613L28.5928 68.0925L25 52.0022Z" fill="white" stroke="black"/>
<rect x="34.5238" y="82.3171" width="33.9286" height="2.43902" fill="#ABA8A8"/>
<path d="M34.5238 64.7561C34.5238 61.9947 36.7624 59.7561 39.5238 59.7561H63.4524C66.2138 59.7561 68.4524 61.9947 68.4524 64.7561V81.5366C68.4524 82.6412 67.5569 83.5366 66.4524 83.5366H36.5238C35.4192 83.5366 34.5238 82.6412 34.5238 81.5366V64.7561Z" fill="#B0B0B0"/>
<path d="M54.7619 68.2927V69.5122V73.4756C54.7619 73.4756 53.5714 76.5244 51.4881 76.5244C49.4048 76.5244 46.4286 75.6098 46.4286 75.6098V75C46.4286 75 50.8929 74.3903 51.7857 73.4756C52.6786 72.561 53.8691 69.5122 53.8691 69.5122V68.2927H54.7619Z" fill="#FCE593"/>
<path d="M53.8691 69.5122H54.7619M53.8691 69.5122V68.2927H54.7619V69.5122M53.8691 69.5122C53.8691 69.5122 52.6786 72.561 51.7857 73.4756C50.8929 74.3903 46.4286 75 46.4286 75V75.6098C46.4286 75.6098 49.4048 76.5244 51.4881 76.5244C53.5714 76.5244 54.7619 73.4756 54.7619 73.4756V69.5122" stroke="#F8D354"/>
<path d="M53.869 68.9024V67.6829H54.7619V68.9024H53.869Z" fill="#796666" stroke="#796666"/>
<path d="M44.8705 28.6585H55.7227L69.0144 36.5417L75 50.2345L50.5952 43.9024L25.5952 51.2195L31.8452 37.8049L44.8705 28.6585Z" fill="#D8AF72" fill-opacity="0.48"/>
<path d="M51.9345 28.6585L49.1071 53.0488L54.1666 28.6585H51.9345Z" fill="white"/>
<path d="M51.8795 45.8406L52.1238 47.375L50.5941 48.5392L48.8521 47.2551L48.9052 45.7317L51.8795 45.8406Z" fill="#1E1E1E" stroke="#1E1E1E"/>
<path d="M37.1498 40.1269L43.3639 40.9857L41.9634 40.1644L38.66 39.4209L36.6445 39.0348L37.1498 40.1269Z" fill="#1E1E1E"/>
<path d="M62.0931 39.5979L56.5476 41.1468L58.0276 41.3061L61.0808 40.7151L62.9189 40.2998L62.0931 39.5979Z" fill="#1E1E1E"/>
<path d="M47.1747 41.6082C47.5882 42.743 46.9439 43.747 45.9101 44.4171C44.865 45.0944 43.6921 45.2066 42.6629 44.4891C41.428 43.6282 41.2176 41.906 42.1843 40.7919C42.9914 39.8618 44.1427 39.7179 45.3517 40.1037C46.2426 40.3881 46.866 40.7613 47.1747 41.6082Z" fill="#E1BA80"/>
<path fill-rule="evenodd" clip-rule="evenodd" d="M38.7821 18.3433L40.7248 20.015L47.6731 25.9939H53.815L60.7633 20.015L62.585 18.4475L63.5176 20.6623L70.0652 36.2111L70.7109 37.7443L69.2123 38.4666L64.1528 40.9057L63.9351 40.4541L62.5 41.1585C62.5 41.1585 55.9406 32.9023 54.932 29.4939H54.4643H47.0238H46.3873C44.5501 32.0995 39.2641 37.4688 37.6079 39.1319L36.661 40.865L32.1967 38.426L30.7299 37.6247L31.4631 36.1226L35.2875 28.2872L37.9323 20.7613L38.7821 18.3433ZM39.0811 28.0488L44.6951 28.0488L40.3846 24.3397L39.0811 28.0488ZM61.2246 24.2355L63.0342 28.5327C61.6813 28.3936 59.0592 28.1478 56.7662 28.0718L61.2246 24.2355Z" fill="#555252"/>
<ellipse cx="45.2381" cy="42.0732" rx="1.78571" ry="1.82927" fill="black"/>
<ellipse cx="45.8333" cy="41.4634" rx="0.595238" ry="0.609756" fill="#D9D9D9"/>
<path d="M52.8253 41.6082C52.4118 42.743 53.0561 43.747 54.0899 44.4171C55.135 45.0944 56.3079 45.2066 57.3371 44.4891C58.572 43.6282 58.7824 41.906 57.8157 40.7919C57.0086 39.8618 55.8573 39.7179 54.6483 40.1037C53.7574 40.3881 53.134 40.7613 52.8253 41.6082Z" fill="#E1BA80"/>
<path d="M53.4205 41.9579C53.007 43.0927 53.6513 44.0967 54.6851 44.7668C55.7302 45.4442 56.9031 45.5563 57.9323 44.8389C59.1672 43.9779 59.3776 42.2557 58.4109 41.1417C57.6038 40.2115 56.4525 40.0677 55.2436 40.4535C54.3526 40.7378 53.7292 41.111 53.4205 41.9579Z" fill="#E1BA80"/>
<ellipse cx="1.78571" cy="1.82927" rx="1.78571" ry="1.82927" transform="matrix(-1 0 0 1 56.5476 40.2439)" fill="black"/>
<ellipse cx="0.595238" cy="0.609756" rx="0.595238" ry="0.609756" transform="matrix(-1 0 0 1 54.7619 40.8537)" fill="#D9D9D9"/>
<path d="M48.8492 52.9933L48.2143 50L50.2976 50.6098L52.9762 50L52.3413 52.9933L50.754 53.6585L48.8492 52.9933Z" fill="#BF5F5F" stroke="black"/>
<path d="M45.2381 50.6097L47.9167 54.878L50.8929 55.7927L53.2738 54.878L56.5476 50.6097" stroke="black" stroke-width="0.5"/>
<path d="M42.5595 48.1707L50.7353 50.6097L59.2262 48.1707" stroke="black"/>
<path d="M58.0357 40.1508C58.0357 40.1508 53.8547 39.4782 53.0563 40.1508C52.5554 40.5729 52.1476 41.575 52.1476 41.575" stroke="#555252"/>
<path d="M42.2619 40.2439C42.2619 40.2439 45.8478 39.1362 46.6461 39.8089C47.1471 40.2309 47.5549 41.2331 47.5549 41.2331" stroke="#555252"/>
<path d="M47.4126 43.3013C47.036 43.2497 46.492 44.5851 45.5028 45.1391C44.578 45.657 41.6667 43.3013 41.6667 43.3013" stroke="#555252" stroke-opacity="0.5"/>
<path d="M52.9762 43.9025C53.2738 44.2073 54.8351 45.0487 55.9562 45.17C57.0044 45.2834 58.706 43.3365 58.9286 42.9878" stroke="#555252" stroke-opacity="0.5"/>
<path d="M27.381 47.2561C27.381 47.2561 35.549 57.4414 38.9881 53.6585C39.5593 53.0302 39.8099 52.6003 40.1786 51.8293C41.7259 48.5931 38.9881 42.6829 38.9881 42.6829L31.25 39.0244L27.381 47.2561Z" fill="#EED5B0" fill-opacity="0.5"/>
<path d="M73.6881 45.7317C73.6881 45.7317 65.8177 55.917 62.3786 52.1342C61.8074 51.5059 61.5568 51.0759 61.1881 50.3049C59.6408 47.0687 62.3786 41.1585 62.3786 41.1585L69.8191 37.1951L73.6881 45.7317Z" fill="#EED5B0" fill-opacity="0.5"/>
</svg>
